%TF.GenerationSoftware,KiCad,Pcbnew,10.0.4*%
%TF.CreationDate,2026-07-24T15:14:14+05:30*%
%TF.ProjectId,CCG_UPDATED,4343475f-5550-4444-9154-45442e6b6963,rev?*%
%TF.SameCoordinates,Original*%
%TF.FileFunction,Soldermask,Top*%
%TF.FilePolarity,Negative*%
%FSLAX46Y46*%
G04 Gerber Fmt 4.6, Leading zero omitted, Abs format (unit mm)*
G04 Created by KiCad (PCBNEW 10.0.4) date 2026-07-24 15:14:14*
%MOMM*%
%LPD*%
G01*
G04 APERTURE LIST*
G04 Aperture macros list*
%AMRoundRect*
0 Rectangle with rounded corners*
0 $1 Rounding radius*
0 $2 $3 $4 $5 $6 $7 $8 $9 X,Y pos of 4 corners*
0 Add a 4 corners polygon primitive as box body*
4,1,4,$2,$3,$4,$5,$6,$7,$8,$9,$2,$3,0*
0 Add four circle primitives for the rounded corners*
1,1,$1+$1,$2,$3*
1,1,$1+$1,$4,$5*
1,1,$1+$1,$6,$7*
1,1,$1+$1,$8,$9*
0 Add four rect primitives between the rounded corners*
20,1,$1+$1,$2,$3,$4,$5,0*
20,1,$1+$1,$4,$5,$6,$7,0*
20,1,$1+$1,$6,$7,$8,$9,0*
20,1,$1+$1,$8,$9,$2,$3,0*%
G04 Aperture macros list end*
%ADD10R,2.060000X3.110000*%
%ADD11R,5.650000X2.350000*%
%ADD12C,2.000000*%
%ADD13R,3.500000X1.850000*%
%ADD14C,1.950000*%
%ADD15RoundRect,0.250000X0.900000X-1.000000X0.900000X1.000000X-0.900000X1.000000X-0.900000X-1.000000X0*%
%ADD16RoundRect,1.500000X-1.500000X1.500000X-1.500000X-1.500000X1.500000X-1.500000X1.500000X1.500000X0*%
%ADD17C,6.000000*%
%ADD18C,1.500000*%
%ADD19RoundRect,0.250000X-0.450000X0.262500X-0.450000X-0.262500X0.450000X-0.262500X0.450000X0.262500X0*%
%ADD20RoundRect,0.250000X-0.625000X0.312500X-0.625000X-0.312500X0.625000X-0.312500X0.625000X0.312500X0*%
%ADD21RoundRect,0.250000X-0.250000X-0.475000X0.250000X-0.475000X0.250000X0.475000X-0.250000X0.475000X0*%
%ADD22R,1.500000X1.000000*%
%ADD23C,2.500000*%
%ADD24C,3.000000*%
%ADD25R,2.300000X2.300000*%
%ADD26C,2.300000*%
%ADD27RoundRect,0.250000X-1.000000X-0.900000X1.000000X-0.900000X1.000000X0.900000X-1.000000X0.900000X0*%
%ADD28R,1.000000X1.500000*%
%ADD29RoundRect,0.250000X0.450000X-0.262500X0.450000X0.262500X-0.450000X0.262500X-0.450000X-0.262500X0*%
%ADD30RoundRect,0.250000X-0.650000X0.325000X-0.650000X-0.325000X0.650000X-0.325000X0.650000X0.325000X0*%
%ADD31RoundRect,0.250000X1.350000X-1.350000X1.350000X1.350000X-1.350000X1.350000X-1.350000X-1.350000X0*%
%ADD32C,3.200000*%
G04 APERTURE END LIST*
%TO.C,JP5*%
G36*
X155650000Y-118700000D02*
G01*
X157150000Y-118700000D01*
X157150000Y-120300000D01*
X155650000Y-120300000D01*
X155650000Y-118700000D01*
G37*
%TO.C,JP6*%
G36*
X190330000Y-118847500D02*
G01*
X191930000Y-118847500D01*
X191930000Y-120347500D01*
X190330000Y-120347500D01*
X190330000Y-118847500D01*
G37*
%TO.C,JP4*%
G36*
X189960000Y-89517500D02*
G01*
X191560000Y-89517500D01*
X191560000Y-91017500D01*
X189960000Y-91017500D01*
X189960000Y-89517500D01*
G37*
%TO.C,JP2*%
G36*
X190250000Y-59400000D02*
G01*
X191850000Y-59400000D01*
X191850000Y-60900000D01*
X190250000Y-60900000D01*
X190250000Y-59400000D01*
G37*
%TO.C,JP1*%
G36*
X155450000Y-61200000D02*
G01*
X156950000Y-61200000D01*
X156950000Y-62800000D01*
X155450000Y-62800000D01*
X155450000Y-61200000D01*
G37*
%TO.C,JP3*%
G36*
X155450000Y-90100000D02*
G01*
X156950000Y-90100000D01*
X156950000Y-91700000D01*
X155450000Y-91700000D01*
X155450000Y-90100000D01*
G37*
%TD*%
D10*
%TO.C,F1*%
X148425000Y-61400000D03*
X139575000Y-61400000D03*
%TD*%
D11*
%TO.C,C1*%
X144370000Y-52320000D03*
X154070000Y-52320000D03*
%TD*%
D12*
%TO.C,TH3*%
X136650000Y-79305000D03*
X136650000Y-85655000D03*
%TD*%
D13*
%TO.C,C10*%
X188760000Y-79770000D03*
X194060000Y-79770000D03*
%TD*%
D14*
%TO.C,PS3*%
X162310000Y-105630000D03*
X162310000Y-113250000D03*
X162310000Y-118330000D03*
X182630000Y-125950000D03*
X182630000Y-115790000D03*
X182630000Y-105630000D03*
%TD*%
D15*
%TO.C,D4*%
X127130000Y-85247500D03*
X127130000Y-80947500D03*
%TD*%
D16*
%TO.C,J3*%
X120210000Y-79340000D03*
D17*
X120210000Y-86540000D03*
%TD*%
D18*
%TO.C,TP1*%
X205510000Y-59100000D03*
%TD*%
D19*
%TO.C,R2*%
X187580000Y-59460000D03*
X187580000Y-61285000D03*
%TD*%
D20*
%TO.C,FB3*%
X198460000Y-117917500D03*
X198460000Y-120842500D03*
%TD*%
D21*
%TO.C,C4*%
X200130000Y-58650000D03*
X202030000Y-58650000D03*
%TD*%
D14*
%TO.C,PS2*%
X162370000Y-76680000D03*
X162370000Y-84300000D03*
X162370000Y-89380000D03*
X182690000Y-97000000D03*
X182690000Y-86840000D03*
X182690000Y-76680000D03*
%TD*%
D18*
%TO.C,TP3*%
X205100000Y-118820000D03*
%TD*%
D13*
%TO.C,C5*%
X188920000Y-49960000D03*
X194220000Y-49960000D03*
%TD*%
D21*
%TO.C,C9*%
X199840000Y-88650000D03*
X201740000Y-88650000D03*
%TD*%
D22*
%TO.C,JP5*%
X156400000Y-118200000D03*
X156400000Y-119500000D03*
X156400000Y-120800000D03*
%TD*%
D23*
%TO.C,RV3*%
X139330000Y-106520000D03*
X139330000Y-115020000D03*
%TD*%
D20*
%TO.C,FB2*%
X197830000Y-88817500D03*
X197830000Y-91742500D03*
%TD*%
D24*
%TO.C,J2*%
X211760000Y-51820000D03*
D25*
X204460000Y-49720000D03*
D26*
X204460000Y-53920000D03*
X198960000Y-49720000D03*
X198960000Y-53920000D03*
%TD*%
D27*
%TO.C,D3*%
X189840000Y-56190000D03*
X194140000Y-56190000D03*
%TD*%
%TO.C,D9*%
X190700000Y-115600000D03*
X195000000Y-115600000D03*
%TD*%
D19*
%TO.C,R4*%
X187460000Y-89397500D03*
X187460000Y-91222500D03*
%TD*%
D21*
%TO.C,C8*%
X193950000Y-90020000D03*
X195850000Y-90020000D03*
%TD*%
%TO.C,C14*%
X200630000Y-118090000D03*
X202530000Y-118090000D03*
%TD*%
%TO.C,C13*%
X194300000Y-119400000D03*
X196200000Y-119400000D03*
%TD*%
D28*
%TO.C,JP6*%
X189830000Y-119597500D03*
X191130000Y-119597500D03*
X192430000Y-119597500D03*
%TD*%
%TO.C,JP4*%
X189460000Y-90267500D03*
X190760000Y-90267500D03*
X192060000Y-90267500D03*
%TD*%
D29*
%TO.C,R1*%
X153510000Y-62642500D03*
X153510000Y-60817500D03*
%TD*%
D23*
%TO.C,RV1*%
X139440000Y-49060000D03*
X139440000Y-57560000D03*
%TD*%
D13*
%TO.C,C15*%
X188920000Y-109330000D03*
X194220000Y-109330000D03*
%TD*%
D27*
%TO.C,D6*%
X190320000Y-86090000D03*
X194620000Y-86090000D03*
%TD*%
D17*
%TO.C,H4*%
X210000000Y-102000000D03*
%TD*%
D30*
%TO.C,C7*%
X151000000Y-89325000D03*
X151000000Y-92275000D03*
%TD*%
D12*
%TO.C,TH4*%
X136890000Y-107585000D03*
X136890000Y-113935000D03*
%TD*%
D30*
%TO.C,C12*%
X151400000Y-118125000D03*
X151400000Y-121075000D03*
%TD*%
D28*
%TO.C,JP2*%
X189750000Y-60150000D03*
X191050000Y-60150000D03*
X192350000Y-60150000D03*
%TD*%
D24*
%TO.C,J6*%
X211870000Y-111200000D03*
D25*
X204570000Y-109100000D03*
D26*
X204570000Y-113300000D03*
X199070000Y-109100000D03*
X199070000Y-113300000D03*
%TD*%
D18*
%TO.C,TP2*%
X205280000Y-89010000D03*
%TD*%
D22*
%TO.C,JP1*%
X156200000Y-60700000D03*
X156200000Y-62000000D03*
X156200000Y-63300000D03*
%TD*%
D12*
%TO.C,TH2*%
X136400000Y-50505000D03*
X136400000Y-56855000D03*
%TD*%
D20*
%TO.C,FB1*%
X198190000Y-58537500D03*
X198190000Y-61462500D03*
%TD*%
D29*
%TO.C,R3*%
X153790000Y-91102500D03*
X153790000Y-89277500D03*
%TD*%
D17*
%TO.C,H2*%
X125000000Y-102000000D03*
%TD*%
D19*
%TO.C,R6*%
X187630000Y-118807500D03*
X187630000Y-120632500D03*
%TD*%
D23*
%TO.C,RV2*%
X139130000Y-78050000D03*
X139130000Y-86550000D03*
%TD*%
D21*
%TO.C,C3*%
X194310000Y-60070000D03*
X196210000Y-60070000D03*
%TD*%
D10*
%TO.C,F3*%
X139575000Y-119000000D03*
X148425000Y-119000000D03*
%TD*%
D14*
%TO.C,PS1*%
X162360000Y-47810000D03*
X162360000Y-55430000D03*
X162360000Y-60510000D03*
X182680000Y-68130000D03*
X182680000Y-57970000D03*
X182680000Y-47810000D03*
%TD*%
D17*
%TO.C,H1*%
X125000000Y-72000000D03*
%TD*%
D22*
%TO.C,JP3*%
X156200000Y-89600000D03*
X156200000Y-90900000D03*
X156200000Y-92200000D03*
%TD*%
D24*
%TO.C,J4*%
X211625600Y-81634250D03*
D25*
X204325600Y-79534250D03*
D26*
X204325600Y-83734250D03*
X198825600Y-79534250D03*
X198825600Y-83734250D03*
%TD*%
D11*
%TO.C,C6*%
X144100000Y-81260000D03*
X153800000Y-81260000D03*
%TD*%
D29*
%TO.C,R5*%
X154060000Y-119962500D03*
X154060000Y-118137500D03*
%TD*%
D17*
%TO.C,H3*%
X210000000Y-72000000D03*
%TD*%
D31*
%TO.C,D5*%
X132390000Y-90970000D03*
D32*
X132390000Y-75730000D03*
%TD*%
D30*
%TO.C,C2*%
X151000000Y-60525000D03*
X151000000Y-63475000D03*
%TD*%
D10*
%TO.C,F2*%
X139175000Y-90200000D03*
X148025000Y-90200000D03*
%TD*%
D11*
%TO.C,C11*%
X144350000Y-110030000D03*
X154050000Y-110030000D03*
%TD*%
M02*
